<?xml version="1.0" encoding="UTF-8"?>
<svg enable-background="new 0 0 55.867 55.867" version="1.1" viewBox="0 0 55.867 55.867" xml:space="preserve" xmlns="http://www.w3.org/2000/svg">
<path fill="#1ab798" d="m55.818 21.578c-0.118-0.362-0.431-0.626-0.808-0.681l-18.09-2.629-8.09-16.392c-0.168-0.342-0.516-0.558-0.896-0.558s-0.729 0.216-0.896 0.558l-8.091 16.393-18.09 2.629c-0.377 0.055-0.689 0.318-0.808 0.681-0.117 0.361-0.02 0.759 0.253 1.024l13.091 12.76-3.091 18.018c-0.064 0.375 0.09 0.754 0.397 0.978 0.309 0.226 0.718 0.255 1.053 0.076l16.182-8.506 16.18 8.506c0.146 0.077 0.307 0.115 0.466 0.115 0.207 0 0.413-0.064 0.588-0.191 0.308-0.224 0.462-0.603 0.397-0.978l-3.09-18.017 13.091-12.761c0.272-0.267 0.37-0.664 0.252-1.025z"/>
</svg>
