<svg viewBox="0 0 512 512" xmlns="http://www.w3.org/2000/svg"><path fill="#1ab798" d="M467.81 431.85l-36.629-61.056a181.363 181.363 0 01-25.856-93.312v-53.483c0-67.52-45.056-124.63-106.67-143.04V42.666c0-23.531-19.136-42.667-42.667-42.667s-42.667 19.136-42.667 42.667v38.293c-61.61 18.411-106.67 75.52-106.67 143.04v53.483c0 32.853-8.939 65.109-25.835 93.291l-36.629 61.056c-1.984 3.307-2.027 7.403-.128 10.752S49.478 448 53.318 448h405.33c3.84 0 7.381-2.069 9.28-5.397 1.899-3.329 1.835-7.468-.128-10.753zm-278.99 37.48c12.032 25.131 37.504 42.667 67.178 42.667s55.147-17.536 67.179-42.667h-134.36z"/></svg>