<svg height="16" id="svg7384" xmlns:osb="http://www.openswatchbook.org/uri/2009/osb" version="1.1" width="16" xmlns="http://www.w3.org/2000/svg"><defs id="defs7386"><linearGradient id="linearGradient5606" osb:paint="solid"><stop id="stop5608" offset="0" stop-color="#000" stop-opacity="1"/></linearGradient></defs><g id="layer12" transform="translate(-265 -120.997)" display="inline"><path d="M270 125a1 1 0 00-1 1 1 1 0 00.293.707l2.293 2.293-2.293 2.293A1 1 0 00269 132a1 1 0 001 1 1 1 0 00.707-.293l2.293-2.293 2.283 2.283A1 1 0 00276 133a1 1 0 001-1 1 1 0 00-.293-.707L274.414 129l2.283-2.283A1 1 0 00277 126a1 1 0 00-1-1 1 1 0 00-.707.293L273 127.586l-2.283-2.283a1 1 0 00-.01-.01A1 1 0 00270 125z" id="path4743" display="inline" opacity=".5" fill="#000" fill-opacity="1" stroke="none"/></g></svg>