<?xml version="1.0" encoding="UTF-8"?>
<svg enable-background="new 0 0 505.145 505.145" version="1.1" viewBox="0 0 505.145 505.145" xml:space="preserve" xmlns="http://www.w3.org/2000/svg">
		<g fill="#fff">
			<path d="m68.541 164.72h-1.294c-16.588 0-30.113 13.568-30.113 30.113v131.11c0 16.61 13.525 30.134 30.113 30.134h1.316c16.588 0 30.113-13.568 30.113-30.134v-131.11c-0.022-16.544-13.568-30.112-30.135-30.112z"/>
			<path d="m113.08 376.54c0 15.229 12.446 27.632 27.675 27.632h29.574v70.817c0 16.631 13.568 30.156 30.113 30.156h1.294c16.61 0 30.156-13.546 30.156-30.156v-70.817h41.33v70.817c0 16.631 13.611 30.156 30.156 30.156h1.273c16.609 0 30.134-13.546 30.134-30.156v-70.817h29.595c15.207 0 27.654-12.403 27.654-27.632v-207.02h-278.95v207.02z"/>
			<path d="m322.04 43.983l23.491-36.26c1.51-2.287 0.841-5.414-1.467-6.903-2.286-1.51-5.414-0.884-6.903 1.467l-24.353 37.512c-18.27-7.485-38.676-11.691-60.226-11.691-21.571 0-41.934 4.206-60.247 11.691l-24.31-37.512c-1.488-2.351-4.638-2.977-6.946-1.467-2.308 1.488-2.977 4.616-1.467 6.903l23.512 36.26c-42.387 20.773-70.968 59.924-70.968 104.83 0 2.761 0.173 5.479 0.41 8.175h280.05c0.237-2.696 0.388-5.414 0.388-8.175 1e-3 -44.91-28.602-84.061-70.967-104.83zm-134.39 64.928c-7.442 0-13.482-5.997-13.482-13.46s6.04-13.439 13.482-13.439c7.485 0 13.482 5.975 13.482 13.439s-6.04 13.46-13.482 13.46zm129.84 0c-7.442 0-13.482-5.997-13.482-13.46s6.04-13.439 13.482-13.439c7.463 0 13.46 5.975 13.46 13.439 0 7.463-5.997 13.46-13.46 13.46z"/>
			<path d="m437.88 164.72h-1.251c-16.588 0-30.156 13.568-30.156 30.113v131.11c0 16.61 13.59 30.134 30.156 30.134h1.273c16.609 0 30.113-13.568 30.113-30.134v-131.11c0-16.544-13.547-30.112-30.135-30.112z"/>
		</g>
</svg>
