<svg aria-hidden="true" style="position:absolute;width:0;height:0" xmlns="http://www.w3.org/2000/svg" overflow="hidden"><defs><symbol id="icon-icon-facebook" viewBox="0 0 32 32"><path d="M18.466 10.485V7.728c0-.414.019-.735.058-.961s.126-.45.262-.67c.136-.22.356-.372.66-.456s.709-.126 1.214-.126h2.757V.001h-4.408c-2.55 0-4.382.605-5.495 1.815s-1.67 2.993-1.67 5.35v3.32H8.543v5.515h3.301v16h6.622v-16h4.407l.583-5.515h-4.99z"/></symbol><symbol id="icon-icon-linkedin" viewBox="0 0 32 32"><path d="M0 10h7.156v22H0V10zm26.648.258c-.076-.024-.148-.05-.228-.072a4.639 4.639 0 00-.29-.056 6.414 6.414 0 00-1.284-.13c-4.172 0-6.818 3.034-7.69 4.206V10H10v22h7.156V20s5.408-7.532 7.69-2v14H32V17.154c0-3.324-2.278-6.094-5.352-6.896zM7 3.5a3.5 3.5 0 11-7 0 3.5 3.5 0 017 0z"/></symbol><symbol id="icon-icon-twitter" viewBox="0 0 32 32"><path d="M32 6.078c-1.19.522-2.458.868-3.78 1.036a6.523 6.523 0 002.886-3.626 13.11 13.11 0 01-4.16 1.588A6.574 6.574 0 0022.154 3c-3.632 0-6.556 2.948-6.556 6.562 0 .52.044 1.02.152 1.496-5.454-.266-10.28-2.88-13.522-6.862a6.605 6.605 0 00-.898 3.316 6.57 6.57 0 002.914 5.452 6.479 6.479 0 01-2.964-.808v.072c0 3.188 2.274 5.836 5.256 6.446a6.548 6.548 0 01-1.72.216 5.8 5.8 0 01-1.242-.112c.85 2.598 3.262 4.508 6.13 4.57a13.182 13.182 0 01-8.134 2.798c-.538 0-1.054-.024-1.57-.09A18.469 18.469 0 0010.064 29c12.072 0 18.672-10 18.672-18.668 0-.29-.01-.57-.024-.848A13.087 13.087 0 0032 6.078z"/></symbol></defs></svg>